<svg width="24" height="24" viewBox="0 0 24 24" fill="none" xmlns="http://www.w3.org/2000/svg">
<path d="M8 13H10.55V10H13.45V13H16L12 17L8 13ZM19.35 10.04C21.95 10.22 24 12.36 24 15C24 15.6566 23.8707 16.3068 23.6194 16.9134C23.3681 17.52 22.9998 18.0712 22.5355 18.5355C22.0712 18.9998 21.52 19.3681 20.9134 19.6194C20.3068 19.8707 19.6566 20 19 20H6C4.4087 20 2.88258 19.3679 1.75736 18.2426C0.632141 17.1174 0 15.5913 0 14C0 10.91 2.34 8.36 5.35 8.04C5.98257 6.8225 6.93716 5.80196 8.10975 5.08958C9.28235 4.37721 10.628 4.00032 12 4C13.7351 3.99961 15.4165 4.60163 16.7571 5.70325C18.0976 6.80486 19.0141 8.33772 19.35 10.04ZM19 18C19.7956 18 20.5587 17.6839 21.1213 17.1213C21.6839 16.5587 22 15.7956 22 15C21.9966 14.2466 21.708 13.5224 21.1922 12.9732C20.6764 12.424 19.9717 12.0906 19.22 12.04L17.69 11.93L17.39 10.43C17.142 9.18243 16.4694 8.0593 15.4868 7.25165C14.5041 6.444 13.272 6.00171 12 6C9.94 6 8.08 7.14 7.13 8.97L6.63 9.92L5.56 10.03C4.57994 10.1324 3.67291 10.5954 3.01504 11.329C2.35717 12.0627 1.99541 13.0146 2 14C2 15.0609 2.42143 16.0783 3.17157 16.8284C3.92172 17.5786 4.93913 18 6 18H19Z" fill="white"/>
</svg>
