<svg width="24" height="24" viewBox="0 0 24 24" fill="none" xmlns="http://www.w3.org/2000/svg">
<path d="M19 18H6C4.93913 18 3.92172 17.5786 3.17157 16.8284C2.42143 16.0783 2 15.0609 2 14C2 12.9391 2.42143 11.9217 3.17157 11.1716C3.92172 10.4214 4.93913 10 6 10H6.71C7.37 7.69 9.5 6 12 6C13.4587 6 14.8576 6.57946 15.8891 7.61091C16.9205 8.64236 17.5 10.0413 17.5 11.5V12H19C19.7956 12 20.5587 12.3161 21.1213 12.8787C21.6839 13.4413 22 14.2044 22 15C22 15.7957 21.6839 16.5587 21.1213 17.1213C20.5587 17.6839 19.7956 18 19 18ZM19.35 10.03C19.0121 8.32956 18.0947 6.79901 16.7543 5.69938C15.414 4.59975 13.7337 3.99915 12 4C9.11 4 6.6 5.64 5.35 8.03C3.87938 8.19115 2.52004 8.88959 1.53271 9.99134C0.545374 11.0931 -0.000424929 12.5206 2.48222e-07 14C2.48222e-07 15.5913 0.632141 17.1174 1.75736 18.2426C2.88258 19.3679 4.4087 20 6 20H19C19.6566 20 20.3068 19.8707 20.9134 19.6194C21.52 19.3681 22.0712 18.9998 22.5355 18.5355C22.9998 18.0712 23.3681 17.52 23.6194 16.9134C23.8707 16.3068 24 15.6566 24 15C24 12.36 21.95 10.22 19.35 10.03Z" fill="white"/>
</svg>
