<svg width="24" height="24" viewBox="0 0 24 24" fill="none" xmlns="http://www.w3.org/2000/svg">
<path d="M19 12V13.5C21.21 13.5 23 15.29 23 17.5C23 18.32 22.75 19.08 22.33 19.71L21.24 18.62C21.41 18.28 21.5 17.9 21.5 17.5C21.5 16.837 21.2366 16.2011 20.7678 15.7322C20.2989 15.2634 19.6631 15 19 15V16.5L16.75 14.25L16.72 14.22C16.78 14.17 16.85 14.13 19 12ZM19 23V21.5C16.79 21.5 15 19.71 15 17.5C15 16.68 15.25 15.92 15.67 15.29L16.76 16.38C16.59 16.72 16.5 17.1 16.5 17.5C16.5 18.163 16.7634 18.7989 17.2323 19.2678C17.7011 19.7366 18.337 20 19 20V18.5L21.25 20.75L21.28 20.78C21.22 20.83 21.15 20.87 19 23ZM13.03 18H6.00002C3.79002 18 2.00002 16.21 2.00002 14C2.00002 11.79 3.79002 10 6.00002 10H6.71002C7.37002 7.69 9.50002 6 12 6C15 6 17.4 8.37 17.5 11.32C18.12 11.11 18.8 11 19.5 11C20.78 11 21.97 11.38 23 12C22.13 10.9 20.84 10.14 19.35 10.03C19.0121 8.32956 18.0947 6.79901 16.7544 5.69938C15.414 4.59975 13.7337 3.99915 12 4C9.11002 4 6.60002 5.64 5.35002 8.03C3.82785 8.20197 2.42897 8.94925 1.43976 10.1189C0.450539 11.2885 -0.0542018 12.792 0.0288592 14.3216C0.11192 15.8512 0.7765 17.2912 1.88655 18.3468C2.99661 19.4025 4.46818 19.9939 6.00002 20H13.5C13.24 19.38 13.08 18.7 13.03 18V18Z" fill="white"/>
</svg>
