<svg width="24" height="24" viewBox="0 0 24 24" fill="none" xmlns="http://www.w3.org/2000/svg">
<path d="M19 18H6.00002C3.79002 18 2.00002 16.21 2.00002 14C2.00002 11.79 3.79002 10 6.00002 10H6.71002C7.37002 7.69 9.50002 6 12 6C15.04 6 17.5 8.46 17.5 11.5V12H19C20.66 12 22 13.34 22 15C22 16.66 20.66 18 19 18ZM19.35 10.03C19.0121 8.32956 18.0947 6.79901 16.7544 5.69938C15.414 4.59975 13.7337 3.99915 12 4C9.11002 4 6.60002 5.64 5.35002 8.03C3.82785 8.20197 2.42897 8.94925 1.43976 10.1189C0.450539 11.2885 -0.0542018 12.792 0.0288592 14.3216C0.11192 15.8512 0.7765 17.2912 1.88655 18.3468C2.99661 19.4025 4.46818 19.9939 6.00002 20H19C21.76 20 24 17.76 24 15C24 12.36 21.95 10.22 19.35 10.03ZM10 17L6.50002 13.5L7.91002 12.08L10 14.17L14.59 9.59L16 11" fill="white"/>
</svg>
