<svg width="24" height="24" viewBox="0 0 24 24" fill="none" xmlns="http://www.w3.org/2000/svg">
<path d="M6 20C4.4087 20 2.88258 19.3679 1.75736 18.2426C0.632141 17.1174 0 15.5913 0 14C0 10.91 2.34 8.36 5.35 8.04C5.98257 6.8225 6.93716 5.80196 8.10975 5.08958C9.28235 4.37721 10.628 4.00032 12 4C13.729 3.99965 15.405 4.59668 16.7444 5.69004C18.0837 6.78341 19.0042 8.30595 19.35 10C20.6128 10.0933 21.7937 10.6604 22.656 11.5877C23.5183 12.5149 23.9984 13.7338 24 15C24 15.6566 23.8707 16.3068 23.6194 16.9134C23.3681 17.52 22.9998 18.0712 22.5355 18.5355C22.0712 18.9998 21.52 19.3681 20.9134 19.6194C20.3068 19.8707 19.6566 20 19 20H6ZM9.09 8.4L4.5 13L9.09 17.6L10.5 16.18L7.32 13L10.5 9.82L9.09 8.4ZM14.91 8.4L13.5 9.82L16.68 13L13.5 16.18L14.91 17.6L19.5 13L14.91 8.4Z" fill="white"/>
</svg>
