<svg width="24" height="24" viewBox="0 0 24 24" fill="none" xmlns="http://www.w3.org/2000/svg">
<path d="M12.74 5.46995C15.1 6.49995 16.35 9.02995 15.92 11.4599C16.5723 12.023 17.0957 12.72 17.4546 13.5034C17.8135 14.2867 17.9995 15.1382 18 15.9999V16.1699C18.3213 16.0569 18.6594 15.9994 19 15.9999C19.7956 15.9999 20.5587 16.316 21.1213 16.8786C21.6839 17.4412 22 18.2043 22 18.9999C22 19.7956 21.6839 20.5587 21.1213 21.1213C20.5587 21.6839 19.7956 21.9999 19 21.9999H6C4.93913 21.9999 3.92172 21.5785 3.17157 20.8284C2.42143 20.0782 2 19.0608 2 17.9999C2 16.9391 2.42143 15.9217 3.17157 15.1715C3.92172 14.4214 4.93913 13.9999 6 13.9999H6.27C5 12.4499 4.6 10.2399 5.5 8.25995C6.09085 6.93054 7.18521 5.89 8.5427 5.36687C9.90019 4.84375 11.4098 4.88082 12.74 5.46995V5.46995ZM11.93 7.29995C10.16 6.49995 8.09 7.30995 7.31 9.06995C6.85 10.0899 6.93 11.2199 7.41 12.1299C7.97322 11.4614 8.67599 10.9243 9.46895 10.5563C10.2619 10.1883 11.1258 9.99842 12 9.99995C12.7 9.99995 13.38 10.1199 14 10.3399C13.9704 9.69123 13.7611 9.0635 13.3956 8.52673C13.0301 7.98996 12.5227 7.56525 11.93 7.29995V7.29995ZM13.55 3.63995C13 3.39995 12.45 3.22995 11.88 3.11995L14.37 1.81995L15.27 4.70995C14.7465 4.27881 14.1681 3.919 13.55 3.63995V3.63995ZM6.09 4.43995C5.6 4.78995 5.17 5.18995 4.8 5.62995L4.91 2.81995L7.87 3.49995C7.25 3.70995 6.65 4.02995 6.09 4.43995ZM18 9.70995C17.91 9.11995 17.78 8.54995 17.59 7.99995L19.97 9.49995L17.92 11.7299C18.03 11.0799 18.05 10.3999 18 9.70995V9.70995ZM3.04 11.2999C3.11 11.8999 3.24 12.4699 3.43 12.9999L1.06 11.4999L3.1 9.27995C3 9.92995 2.97 10.6099 3.04 11.2999V11.2999ZM19 17.9999H16V15.9999C16 14.9391 15.5786 13.9217 14.8284 13.1715C14.0783 12.4214 13.0609 11.9999 12 11.9999C10.9391 11.9999 9.92172 12.4214 9.17157 13.1715C8.42142 13.9217 8 14.9391 8 15.9999H6C5.46956 15.9999 4.96086 16.2107 4.58578 16.5857C4.21071 16.9608 4 17.4695 4 17.9999C4 18.5304 4.21071 19.0391 4.58578 19.4142C4.96086 19.7892 5.46956 19.9999 6 19.9999H19C19.2652 19.9999 19.5196 19.8946 19.7071 19.7071C19.8946 19.5195 20 19.2652 20 18.9999C20 18.7347 19.8946 18.4804 19.7071 18.2928C19.5196 18.1053 19.2652 17.9999 19 17.9999Z" fill="white"/>
</svg>
